# xmcd
#
# Track frame offsets: 
#        150
#        15727
#        30260
#        76812
#        94162
#        126482
#        146444
#        167679
#        190266
#        231075
#
# Disc length: 3290 seconds
#
# Revision: 0
# Processed by: cddbd v1.5.2PL0 Copyright (c) Steve Scherf et al.
# Submitted via: ExactAudioCopy v0.95b3
#
DISCID=760cd80a
DTITLE=Jimi Hendrix  - Baltimore Civic Center - 1970.06.13
DYEAR=1900
DGENRE=
TTITLE0=Pass It On
TTITLE1=Lover Man
TTITLE2=Machine Gun
TTITLE3=Ezy Rider
TTITLE4=Red House
TTITLE5=Message To Love
TTITLE6=Hey Joe
TTITLE7=Freedom
TTITLE8=Hear My Train A Comin'
TTITLE9=Room Full Of Mirrors
EXTD=
EXTT0=
EXTT1=
EXTT2=
EXTT3=
EXTT4=
EXTT5=
EXTT6=
EXTT7=
EXTT8=
EXTT9=
PLAYORDER=
